<?xml version="1.0" encoding="utf-8"?>
<!-- Generator: Adobe Illustrator 21.1.0, SVG Export Plug-In . SVG Version: 6.00 Build 0)  -->
<svg version="1.1" id="Слой_1" xmlns="http://www.w3.org/2000/svg" xmlns:xlink="http://www.w3.org/1999/xlink" x="0px" y="0px"
	 viewBox="0 0 32.606 29.146" enable-background="new 0 0 32.606 29.146" xml:space="preserve">
<g>
	<g>
		<g>
			<path fill="#FFFFFF" stroke="#2F2F56" stroke-miterlimit="10" d="M24.036,21.472l6.033-3.483c1.253-0.728,2.03-2.277,2.036-4.478
				c0.012-4.431-3.102-9.826-6.959-12.053c-1.94-1.12-3.698-1.224-4.968-0.486l-6.033,3.483L24.036,21.472z"/>
			<path fill="#FFFFFF" stroke="#2F2F56" stroke-miterlimit="10" d="M18.391,21.377c3.857,2.226,6.991,0.439,7.004-3.992
				s-3.102-9.826-6.959-12.053s-6.99-0.44-7.004,3.992C11.42,13.755,14.534,19.15,18.391,21.377z"/>
		</g>
		<g>
			<path fill="#FFFFFF" stroke="#2F2F56" stroke-width="1.1259" stroke-miterlimit="10" d="M18.563,26.238l7.275-4.2
				c1.41-0.819,2.286-2.563,2.292-5.042c0.014-4.989-3.493-11.063-7.835-13.57c-2.185-1.261-4.164-1.378-5.593-0.548l-7.274,4.2
				L18.563,26.238z"/>
			<path fill="#FFFFFF" stroke="#2F2F56" stroke-width="1.1259" stroke-miterlimit="10" d="M12.004,26.248
				c4.343,2.506,7.872,0.495,7.886-4.494s-3.493-11.063-7.835-13.57s-7.871-0.495-7.886,4.494
				C4.155,17.667,7.662,23.741,12.004,26.248z"/>
		</g>
		<g>
			<path fill="#FFFFFF" stroke="#2F2F56" stroke-miterlimit="10" d="M12.424,28.176l3.435-1.983c1.253-0.728,2.03-2.277,2.036-4.478
				c0.012-4.431-3.102-9.826-6.959-12.053c-1.94-1.12-3.698-1.224-4.968-0.486l-3.435,1.983L12.424,28.176z"/>
			<path fill="#FFFFFF" stroke="#2F2F56" stroke-miterlimit="10" d="M7.459,27.688c3.857,2.226,6.991,0.439,7.004-3.992
				s-3.102-9.826-6.959-12.053s-6.99-0.44-7.004,3.992C0.488,20.067,3.602,25.461,7.459,27.688z"/>
		</g>
	</g>
</g>
</svg>
